PathFileType	4	(X/Y/Z)	k10_0-1010.trc
DataRate	CameraRate	NumFrames	NumMarkers	Units	OrigDataRate	OrigDataStartFrame	OrigNumFrames
120	120	7	27	m	120	126	1010
Frame#	Time	RHip			RKnee			RAnkle			RBigToe			RSmallToe			RHeel			LHip			LKnee			LAnkle			LBigToe			LSmallToe			LHeel			Nose			REye			LEye			RShoulder			RElbow			RWrist			RThumb			RIndex			RPinky			LShoulder			LElbow			LWrist			LThumb			LIndex			LPinky			
		X1	Y1	Z1	X2	Y2	Z2	X3	Y3	Z3	X4	Y4	Z4	X5	Y5	Z5	X6	Y6	Z6	X7	Y7	Z7	X8	Y8	Z8	X9	Y9	Z9	X10	Y10	Z10	X11	Y11	Z11	X12	Y12	Z12	X13	Y13	Z13	X14	Y14	Z14	X15	Y15	Z15	X16	Y16	Z16	X17	Y17	Z17	X18	Y18	Z18	X19	Y19	Z19	X20	Y20	Z20	X21	Y21	Z21	X22	Y22	Z22	X23	Y23	Z23	X24	Y24	Z24	X25	Y25	Z25	X26	Y26	Z26	X27	Y27	Z27	
126	1.05	0.03159405162401626	0.21655279972453548	0.8992169868162477	-0.0015919503035435212	0.22035434933201317	0.48390881171724687	-0.0387627702214511	0.2644988699997609	0.08266222102530277	-0.041107288785802776	0.06312700860124913	0.017887483947064728	-0.08013762676684044	0.10029021045637901	0.022299640713694585	-0.03904436462986379	0.3045237775972704	0.023379333641713542	0.25892745263257083	0.22213494195811448	0.8992192896853817	0.2733598544316035	0.2194192310770783	0.4780985788841875	0.30318753348959177	0.28503338921780763	0.07794850940367647	0.3192142990081925	0.07842064768902676	0.017533432744982685	0.34628162618507785	0.12104619113186547	0.021429776389486715	0.2955103535761745	0.31902983680640934	0.022284243174930884	0.15157767274494455	0.08569615376071128	1.6003346242200522	0.12780073853777923	0.09778057839575521	1.6290553171131483	0.17535424319330925	0.10851955515321976	1.629201334695947	-0.029430262297988966	0.23929466834283447	1.4287542232628778	-0.2876892561278056	0.20037041083569765	1.4583153469534544	-0.5219801128713288	0.14586643820802028	1.499600393777904	-0.5887631978370087	0.10022535167958058	1.4981394208659562	-0.6268588119546217	0.12193954836657953	1.5211655430125721	-0.619379555884163	0.1392508190031533	1.5075350548474997	0.34110484936610797	0.2571468282571169	1.4290932819087965	0.5976459452697934	0.22542754871429807	1.438635362465049	0.8414765247252968	0.17973148510726633	1.4441947159686124	0.9042734685451669	0.14534317563707494	1.4529449143663176	0.9522787100673947	0.17027804914090275	1.4626287306305104	0.9462921732239354	0.1839359147867806	1.445431851866259
127	1.0583333333333331	0.03172809472178743	0.21615938856116246	0.8993128744126493	-0.00154614168313479	0.22030853761034086	0.48370894483869015	-0.03884165836777757	0.26448008871397677	0.08251915935285646	-0.041114819040401526	0.06289484128603012	0.017764758837754996	-0.08039211985264468	0.09999210170086793	0.02218251712410297	-0.03923438365603493	0.3044976710974202	0.023187640061791314	0.25895911489924517	0.22183274496878722	0.8993419844124507	0.2733275992616488	0.21934522496991432	0.4779777636077136	0.30302604466745303	0.2850774488968737	0.0778988896666145	0.3190380843249865	0.078420185968537	0.017729536162810988	0.34615448084997746	0.12101112666984766	0.021583084674098897	0.2953424576363203	0.3191055949210605	0.022060359485464864	0.1519890393382798	0.08607422270320117	1.6003443595514422	0.12792996060497572	0.0982179329105351	1.6291170139619204	0.1755998630445338	0.10895135095573039	1.6292223444099814	-0.0294076227825975	0.23930996427624784	1.4290339137890504	-0.28764584367220725	0.20008581438960424	1.4607965226790856	-0.5216859378142974	0.14576662304184368	1.504106934187641	-0.5890786531795325	0.10080703874258937	1.50309617085988	-0.6268701518400578	0.12183822717639216	1.5263618376252388	-0.6193274580310384	0.1399821372105194	1.5124185497821794	0.34116811332442176	0.2572499120167004	1.429347292205938	0.5972121963665342	0.22476770573364035	1.4414762400190742	0.8409030754792848	0.17911369373162722	1.4489236406185932	0.9039099886116186	0.14494259925065534	1.45841445974143	0.9513978045971381	0.16931437363461907	1.4685681860617439	0.9462428428183486	0.18369415280244158	1.451111707181412
128	1.0666666666666669	0.03185592187203882	0.21576430950581552	0.899377083378664	-0.001480782483832064	0.22028260303536729	0.4835208903338881	-0.03894226388054202	0.26443150901904716	0.08243281396684496	-0.04106418461905818	0.06266304911255094	0.01764380529211684	-0.080618446648721	0.09975398379558402	0.022078273348928874	-0.03938658526628013	0.30444050352571783	0.02308576583965063	0.25898740964155403	0.2215375269784569	0.8994447012592286	0.2732885137854411	0.2192796504936764	0.47789915472444533	0.30284726735443207	0.28511218371830327	0.0778454396989082	0.3189206806838407	0.07831233482356921	0.017928584677507294	0.34606817684334157	0.12092202802987027	0.021721770395649098	0.29517173054013124	0.3191771910335327	0.021843597770741338	0.15234786887061752	0.08646921426193811	1.6003557318868107	0.1280299153740141	0.09863342699580865	1.6291904143133562	0.17581351815411098	0.10938227827477515	1.6292420459493147	-0.029441130302344996	0.23933684285876727	1.4293072190186666	-0.2876163414048447	0.1998726513937324	1.463338045814341	-0.521410717994862	0.14593279235913012	1.5087158322748608	-0.5894956622500439	0.10177634061884494	1.5081174917889018	-0.6270000237154113	0.12202098025863281	1.531641152748554	-0.619194782212847	0.14065188158067388	1.5173345159799052	0.3411533559742103	0.25740890250176646	1.4296490631095269	0.5968236267400127	0.22420740623419774	1.444416116322371	0.8403325434914599	0.17860278215951772	1.4537429039597238	0.9036787723023096	0.14469100658104217	1.4639202019044584	0.9503687306179373	0.16822953126051565	1.4746287354275165	0.9462292299965859	0.1836749869213999	1.4568308087238455
129	1.075	0.03197403211087293	0.21537386274478568	0.8993989456361028	-0.0014085601563859826	0.22027650344499658	0.483358487347226	-0.03906482044832517	0.2643455904477189	0.08240873037070953	-0.04096438013779332	0.062434544793811185	0.017536050563726376	-0.08081678855571874	0.09958110429795881	0.02199002275493507	-0.039487659040220564	0.30434396025197624	0.023063463209596843	0.25901260046829827	0.221257817877441	0.8995108365796322	0.273244797880875	0.21922142156775445	0.4778734262178771	0.3026711509823306	0.2851252797919253	0.0778011248286767	0.31888442877908396	0.07810452553522171	0.01810718125757239	0.3460318617601704	0.12077665989112717	0.02183852886007418	0.29501324292699266	0.31924615710966864	0.02165449048655092	0.1526367557830777	0.08686054951719827	1.6003742405766634	0.12810004766307378	0.09901145834131504	1.629280799259224	0.1759784361292555	0.10980046193154254	1.6292638566588669	-0.029537561959825275	0.23938893229824743	1.42957703422939	-0.28756672870694555	0.19973002654068708	1.4659488421181357	-0.5211143547208584	0.14633638734312057	1.5134108577565644	-0.5899749670769571	0.10307383973290832	1.5131794793299291	-0.6271873652955168	0.12246050908556799	1.5369819962413442	-0.6189009541364572	0.14115053709946568	1.5222750494346007	0.3410658895332627	0.25761093174591065	1.4299994317895792	0.596456975003932	0.22370922161451492	1.4474390695417907	0.839755008498506	0.17819159340175136	1.4586631280860423	0.9034622636636936	0.14446004964774725	1.4694645555494403	0.9492012482445555	0.16703916158432253	1.480795335562925	0.9462159793493281	0.18386044301922227	1.4626157613788289
130	1.0833333333333333	0.03207977296500262	0.21499630701733688	0.8993793797647449	-0.0013440188191868642	0.22028571047470025	0.4832365292925808	-0.03920834185514972	0.26421861696997756	0.08244521487983573	-0.04081940263467918	0.062230958450168745	0.0174478005933642	-0.0809764692105402	0.09947826929119259	0.021917833181660833	-0.03952812107144359	0.30420676435555133	0.023100318422975722	0.2590323279298494	0.22099883781895438	0.8995366512753622	0.27320043826089113	0.21916780755710621	0.4779068270421678	0.30251493078821057	0.2851162832896381	0.07777972233543587	0.31893937575075326	0.07782429903740871	0.018246151994557855	0.3460479857522235	0.12058349431620302	0.021929519368526634	0.2948833634395556	0.3193224811988528	0.021506476433862495	0.15285345115190807	0.08723121577158734	1.6004065540739827	0.12815090801586826	0.09934390019335201	1.6293941836496038	0.17608604986764884	0.11019479213935568	1.6292913486865623	-0.02969252506515329	0.23948340026787623	1.4298521640874506	-0.28746003735544323	0.19965665218253048	1.4686323797346592	-0.5207341456288757	0.14688631380486605	1.5181633138257566	-0.5904325156804414	0.10453087770948138	1.5182470663926813	-0.6273272960551513	0.12303372992066802	1.5423430730754462	-0.6183938789373362	0.14141931167447486	1.5272292422438678	0.34092971300630637	0.2578361790103439	1.4303988250843387	0.5960921068761224	0.22323560217719898	1.4505293643783437	0.8391522758366352	0.1778688756350426	1.4636907145485847	0.9031179103778424	0.14413076742559866	1.475060689116219	0.9479036667402868	0.16577878683708433	1.4870414508811993	0.94615635959663	0.18421192323018815	1.468480590812303
131	1.0916666666666666	0.03217400326111985	0.21463950270510557	0.8993267732006203	-0.001299466362506734	0.22030078171500278	0.4831614884042257	-0.039363541479907393	0.2640572304195187	0.08253441702709474	-0.040627794140440814	0.06208389468358878	0.017383127477875838	-0.08108178817506348	0.09944864476798136	0.021859855166804273	-0.039507071587719586	0.3040364936652011	0.02317387586113418	0.259042229385808	0.22076036308269903	0.8995271313142255	0.2731578470747805	0.21911517818407358	0.47800141273579577	0.30239246750367593	0.28509436502940905	0.0777933858238131	0.31907722393061383	0.07750683059724624	0.018335349613317425	0.3461060096698319	0.12035127828029822	0.021997089410002196	0.29479902125454777	0.3194224202302912	0.021403192145264212	0.15301543580607893	0.08757878493598396	1.6004606187678534	0.12819832067818368	0.09963440151680918	1.6295343552305468	0.1761465898785457	0.11056057731392335	1.6293285251823777	-0.029889052607283247	0.23962475345861625	1.4301430352387061	-0.287266151115786	0.1996478381569397	1.4713850995591715	-0.5202064570202333	0.1474738686959063	1.522941449412686	-0.5907669297062494	0.10593250000108542	1.5232906571804876	-0.6273120086098602	0.12358960068602948	1.5476806378812782	-0.6176620687792725	0.14146447551949007	1.5321865580612577	0.3407754520055456	0.2580562683217078	1.4308447438765992	0.5957073545643838	0.22275777312718278	1.4536742864726613	0.8385022061941376	0.17761887181989383	1.468827575877384	0.9025281621329495	0.14363658488520076	1.4807274799440397	0.946483373220872	0.16450477501589605	1.4933433172113018	0.9459981080638261	0.18467153500812722	1.4744231733521282
132	1.1	0.03225938676620705	0.21430916494846186	0.8992520443089685	-0.0012816533296843664	0.2203101021296927	0.4831328788432186	-0.039513291371804135	0.2638787921024426	0.0826663132879771	-0.040390499320104786	0.06202019132335872	0.017345247504965165	-0.08111986010326112	0.09949214327673274	0.021812048625566297	-0.03942844216740568	0.30384473871778955	0.02327089088952591	0.25903760596610437	0.2205384939703184	0.8994915025700289	0.27311845953358244	0.2190607872837793	0.4781570290099899	0.30231470369722646	0.28506706427192374	0.07784807927090322	0.3192789918506564	0.07718402848332222	0.01837481469853789	0.3461857957361562	0.12008602644585407	0.02204750404975374	0.29477261374536223	0.3195584257357036	0.021338877957339575	0.15315194126508747	0.0879162088271651	1.6005396294732122	0.12825883545241176	0.0998944380101001	1.629699672429285	0.17618570787192217	0.11090133952913299	1.6293766956623867	-0.030103091378380416	0.23980366095638778	1.430460962768802	-0.286973718322296	0.1996897206680233	1.4741978049239879	-0.5194959692415119	0.14802438134088222	1.527719007306921	-0.5909125314608009	0.10712354813933467	1.528302214830975	-0.6270707205116305	0.12402866033238603	1.5529674377066687	-0.61673119139886	0.14135185195197864	1.5371428247641672	0.3406290308907605	0.2582392612424817	1.4313305282192972	0.5952795930993778	0.22225731110048358	1.456861194960324	0.8377843423077251	0.17742006343216712	1.4740731662931272	0.9016211910005442	0.14296236889482533	1.486481343873094	0.9449456013669475	0.1632802057380314	1.499687813365528	0.9456927736911468	0.18517059266323924	1.4804350258777281
